<mxfile host="app.diagrams.net" modified="2023-12-12T04:03:01.273Z" agent="Mozilla/5.0 (Windows NT 10.0; Win64; x64) AppleWebKit/537.36 (KHTML, like Gecko) Chrome/120.0.0.0 Safari/537.36 Edg/120.0.0.0" version="22.1.7" etag="hA-c3Iny0LXgjX9yT2bb" type="github">
  <diagram name="Page-1" id="-Vkcal_bhPAOWxp8P6Br">
    <mxGraphModel>
      <root>
        <mxCell id="0" />
        <mxCell id="1" parent="0" />
      </root>
    </mxGraphModel>
  </diagram>
</mxfile>
